# xmcd
#
# Track frame offsets:
#	182
#	12150
#	34702
#	44027
#	55565
#	71477
#	100242
#	109887
#	123050
#	144757
#	158182
#	173410
#	185625
#	202140
#	220745
#	238175
#
# Disc length: 3449 seconds
#
# Revision: 0
# Processed by: cddbd v1.4PL0 Copyright (c) Steve Scherf et al.
# Submitted via: dBpowerAMP V4.0
#
DISCID=da0d7710
DTITLE=Varius - Das Jahr des Steinbocks
DYEAR=1900
DGENRE=Blues
TTITLE0=Fast Domino I´m Walking
TTITLE1=Golria Gaynor Iam what I am
TTITLE2=Ritchi Valens La Bamba
TTITLE3=Tom Jones You are the Sunshine of My Life
TTITLE4=Mungo Jerry In the Summertime
TTITLE5=The New Eagles Hotel California
TTITLE6=Billy Swan Ican Help
TTITLE7=Ben E. King Stand By Me
TTITLE8="5Th Demension Let the Sunshine In
TTITLE9=Trini Lopez If I had a Hammer
TTITLE10=Canned Head On the Road again
TTITLE11=Desmond Dekker You Can Get it if you really Want
TTITLE12=The Tremeloes Silence is Golden
TTITLE13=Jose Feliciano Que Sera Sera
TTITLE14=Hot Chocolate So you win again
TTITLE15=Steinbock Boss Versetzt die Berge
EXTD=
EXTT0=
EXTT1=
EXTT2=
EXTT3=
EXTT4=
EXTT5=
EXTT6=
EXTT7=
EXTT8=
EXTT9=
EXTT10=
EXTT11=
EXTT12=
EXTT13=
EXTT14=
EXTT15=
PLAYORDER=
